<svg width="1047" height="342" viewBox="0 0 1047 342" fill="none" xmlns="http://www.w3.org/2000/svg">
<g clip-path="url(#clip0_7663_107)">
<rect width="1047" height="342" fill="white"/>
<path opacity="0.7" d="M1139.07 453.904C1217.94 486.955 1285.91 444.604 1301.86 540.082C1304.01 553.121 1305.05 567.458 1304.95 582.614L-360.69 337.968L-340.168 225.749C-292.286 154.996 -213.192 55.3507 -122.014 27.1981C-64.84 9.54076 -23.9516 23.7543 -4.41052 35.8846C158.49 136.979 269.425 283.141 442.311 308.534C615.198 333.927 725.228 249.657 869.299 263.802C905.491 267.35 929.66 277.214 951.922 287.471C1062.84 338.628 1053.51 418.004 1139.07 453.904Z" fill="url(#paint0_linear_7663_107)"/>
<g opacity="0.7">
<path d="M1021.84 435.103C1040.21 439.491 1120.66 458.68 1126.11 529.358C1126.62 535.972 1126.47 542.825 1125.69 549.719L-39.3561 378.73L-24.5295 296.841C-23.031 288.564 -17.8451 282.493 -12.8001 282.321C67.4385 279.581 89.1099 122.315 207.844 176.043C315.77 241.002 332.364 181.422 540.146 248.946C747.928 316.469 845.908 445.98 956.578 430.881C958.511 430.614 986.718 426.721 1021.84 435.103Z" fill="url(#paint1_linear_7663_107)"/>
</g>
<path opacity="0.7" d="M1161.17 495.568C1169.75 505.041 1184.66 539.906 1190.46 549.483C1191.15 550.682 1191.4 551.969 1191.18 553.204C1190.86 554.83 1189.68 556.243 1187.9 557.145C1186.11 558.046 1183.85 558.367 1181.6 558.04L-23.7936 381.005L-16.1414 329.301C50.3824 266.592 105.806 256.467 143.323 258.198C211.631 261.33 278.304 306.135 376.877 325.048C410.008 331.403 426.815 333.441 449.649 332.299C476.562 330.955 494.557 325.21 527.147 328.636C538.114 329.952 548.993 331.954 559.665 334.621C641.199 355.139 780.694 449.252 912.089 473.594C1021.15 493.801 1136.38 468.126 1161.17 495.568Z" fill="url(#paint2_linear_7663_107)"/>
</g>
<defs>
<linearGradient id="paint0_linear_7663_107" x1="458.81" y1="532.346" x2="538.763" y2="8.78477" gradientUnits="userSpaceOnUse">
<stop offset="0.375" stop-color="#8F9192" stop-opacity="0"/>
<stop offset="0.864583" stop-color="#8F9192" stop-opacity="0.7"/>
</linearGradient>
<linearGradient id="paint1_linear_7663_107" x1="534.059" y1="513.356" x2="588.508" y2="156.04" gradientUnits="userSpaceOnUse">
<stop offset="0.15" stop-color="#65B4DF" stop-opacity="0"/>
<stop offset="0.807292" stop-color="#65B4DF" stop-opacity="0.95"/>
</linearGradient>
<linearGradient id="paint2_linear_7663_107" x1="578.516" y1="499.658" x2="610.584" y2="286.085" gradientUnits="userSpaceOnUse">
<stop offset="0.15" stop-color="#1171C2" stop-opacity="0"/>
<stop offset="0.848958" stop-color="#1171C2"/>
</linearGradient>
<clipPath id="clip0_7663_107">
<rect width="1047" height="342" fill="white"/>
</clipPath>
</defs>
</svg>
