<svg width="606" height="121" viewBox="0 0 606 121" fill="none" xmlns="http://www.w3.org/2000/svg">
<g clip-path="url(#clip0_7658_7118)">
<mask id="mask0_7658_7118" style="mask-type:luminance" maskUnits="userSpaceOnUse" x="57" y="17" width="64" height="104">
<path d="M57.8172 20.8904C61.0783 21.6222 64.3071 22.6662 67.4821 24.0654C94.0229 35.7214 106.099 66.6856 94.4426 93.2264C88.9751 105.69 79.2349 114.967 67.7081 120.09C97.4884 116.431 120.553 91.0416 120.553 60.2711C120.553 52.3067 119.003 44.6975 116.194 37.734C108.251 27.757 96.6812 20.6428 83.088 18.5549C80.3973 18.1459 77.7281 17.9414 75.0913 17.9414C69.0965 17.9414 63.2631 18.9746 57.8064 20.8904" fill="white"/>
</mask>
<g mask="url(#mask0_7658_7118)">
<path d="M118.66 7.21593L40.3422 21.0254L59.7023 130.822L138.02 117.013L118.66 7.21593Z" fill="url(#paint0_linear_7658_7118)"/>
</g>
<mask id="mask1_7658_7118" style="mask-type:luminance" maskUnits="userSpaceOnUse" x="9" y="0" width="108" height="78">
<path d="M13.0874 22.7846C8.2657 34.7527 7.81367 48.5074 12.8614 61.4765C15.3045 67.7511 18.8347 73.2939 23.1397 77.9649C22.4509 73.0356 22.4617 67.9233 23.2474 62.7572C27.6278 34.0962 54.4161 14.422 83.0772 18.8132C96.7996 20.9119 108.477 28.1552 116.42 38.2829C107.638 15.875 85.8109 0 60.2818 0C41.1672 0 24.1299 8.90074 13.0874 22.7846Z" fill="white"/>
</mask>
<g mask="url(#mask1_7658_7118)">
<path d="M103.723 -34.9119L-17.2459 9.11719L20.5181 112.873L141.487 68.8437L103.723 -34.9119Z" fill="url(#paint1_linear_7658_7118)"/>
</g>
<mask id="mask2_7658_7118" style="mask-type:luminance" maskUnits="userSpaceOnUse" x="0" y="22" width="99" height="99">
<path d="M0.0107619 60.2711C0.0107619 93.5601 26.9928 120.542 60.2818 120.542C62.9833 120.542 65.6416 120.37 68.2462 120.015C79.6009 114.859 89.1689 105.657 94.5718 93.3341C96.4875 88.9644 97.6068 84.4979 98.2741 79.9991C93.3986 84.7239 87.6836 88.5555 80.9677 91.1708C53.9534 101.697 23.5272 88.3402 13.0013 61.3366C7.9321 48.3353 8.3949 34.5267 13.2704 22.5371C4.97236 32.8693 0 45.989 0 60.2711" fill="white"/>
</mask>
<g mask="url(#mask2_7658_7118)">
<path d="M98.2849 22.5371H0.010788V120.542H98.2849V22.5371Z" fill="url(#paint2_linear_7658_7118)"/>
</g>
<path d="M445 95.6803V24.8618H478.289C486.716 24.8618 493.163 26.53 497.608 29.8665C502.064 33.2029 504.281 37.6694 504.281 43.2768C504.281 47.0545 503.398 50.2725 501.655 52.9417C499.9 55.6108 497.554 57.6665 494.627 59.1087C491.689 60.5617 488.503 61.2828 485.07 61.2828L486.888 57.645C490.871 57.645 494.444 58.3661 497.608 59.819C500.783 61.272 503.269 63.3815 505.099 66.1475C506.918 68.9135 507.833 72.3576 507.833 76.4689C507.833 82.5391 505.519 87.2639 500.901 90.6326C496.284 94.0013 489.418 95.6911 480.312 95.6911H445V95.6803ZM458.152 85.3589H479.494C484.348 85.3589 488.094 84.5517 490.72 82.9265C493.346 81.3121 494.67 78.7076 494.67 75.1343C494.67 71.5611 493.357 69.0534 490.72 67.396C488.094 65.7493 484.348 64.9206 479.494 64.9206H457.14V54.7068H476.771C481.292 54.7068 484.8 53.8996 487.297 52.2744C489.794 50.66 491.043 48.2276 491.043 44.988C491.043 41.7485 489.794 39.2192 487.297 37.6048C484.8 35.9904 481.292 35.1725 476.771 35.1725H458.152V85.3481V85.3589Z" fill="#9098B4"/>
<path d="M521.996 95.6803V24.8618H535.148V95.6803H521.996Z" fill="#9098B4"/>
<path d="M568.631 95.6803V35.9904H545.158V24.8618H605.257V35.9904H581.783V95.6803H568.631Z" fill="#9098B4"/>
<path d="M416.515 96L416.415 49.6L393.415 88H387.615L364.615 50.2V96H352.215V26H362.915L390.715 72.4L418.015 26H428.715L428.815 96H416.515Z" fill="#182336"/>
<path d="M327.87 96L313.57 75.5C312.97 75.5667 312.07 75.6 310.87 75.6H295.07V96H282.07V26H310.87C316.937 26 322.204 27 326.67 29C331.204 31 334.67 33.8667 337.07 37.6C339.47 41.3333 340.67 45.7667 340.67 50.9C340.67 56.1667 339.37 60.7 336.77 64.5C334.237 68.3 330.57 71.1333 325.77 73L341.87 96H327.87ZM327.57 50.9C327.57 46.4333 326.104 43 323.17 40.6C320.237 38.2 315.937 37 310.27 37H295.07V64.9H310.27C315.937 64.9 320.237 63.7 323.17 61.3C326.104 58.8333 327.57 55.3667 327.57 50.9Z" fill="#182336"/>
<path d="M234.591 97C227.457 97 221.024 95.4667 215.291 92.4C209.557 89.2667 205.057 84.9667 201.791 79.5C198.524 73.9667 196.891 67.8 196.891 61C196.891 54.2 198.524 48.0667 201.791 42.6C205.057 37.0667 209.557 32.7667 215.291 29.7C221.024 26.5667 227.457 25 234.591 25C241.724 25 248.157 26.5667 253.891 29.7C259.624 32.7667 264.124 37.0333 267.391 42.5C270.657 47.9667 272.291 54.1333 272.291 61C272.291 67.8667 270.657 74.0333 267.391 79.5C264.124 84.9667 259.624 89.2667 253.891 92.4C248.157 95.4667 241.724 97 234.591 97ZM234.591 85.6C239.257 85.6 243.457 84.5667 247.191 82.5C250.924 80.3667 253.857 77.4333 255.991 73.7C258.124 69.9 259.191 65.6667 259.191 61C259.191 56.3333 258.124 52.1333 255.991 48.4C253.857 44.6 250.924 41.6667 247.191 39.6C243.457 37.4667 239.257 36.4 234.591 36.4C229.924 36.4 225.724 37.4667 221.991 39.6C218.257 41.6667 215.324 44.6 213.191 48.4C211.057 52.1333 209.991 56.3333 209.991 61C209.991 65.6667 211.057 69.9 213.191 73.7C215.324 77.4333 218.257 80.3667 221.991 82.5C225.724 84.5667 229.924 85.6 234.591 85.6Z" fill="#182336"/>
<path d="M156 36.9V58.2H189.8V69.2H156V96H143V26H194.1V36.9H156Z" fill="#182336"/>
</g>
<defs>
<linearGradient id="paint0_linear_7658_7118" x1="82.534" y1="19.7743" x2="99.9625" y2="118.616" gradientUnits="userSpaceOnUse">
<stop stop-color="#1171C2"/>
<stop offset="0.2" stop-color="#2883CA"/>
<stop offset="0.53" stop-color="#499DD5"/>
<stop offset="0.81" stop-color="#5DAEDC"/>
<stop offset="1" stop-color="#65B4DF"/>
</linearGradient>
<linearGradient id="paint1_linear_7658_7118" x1="110.171" y1="24.2574" x2="13.9493" y2="59.2792" gradientUnits="userSpaceOnUse">
<stop stop-color="#8F9192"/>
<stop offset="0.24" stop-color="#888A8B"/>
<stop offset="0.57" stop-color="#777A7A"/>
<stop offset="0.94" stop-color="#5B5E5E"/>
<stop offset="1" stop-color="#565959"/>
</linearGradient>
<linearGradient id="paint2_linear_7658_7118" x1="-3.32416" y1="73.3974" x2="94.8767" y2="73.3974" gradientUnits="userSpaceOnUse">
<stop stop-color="#F1F1F1"/>
<stop offset="1" stop-color="#BCBBBA"/>
</linearGradient>
<clipPath id="clip0_7658_7118">
<rect width="605.256" height="120.542" fill="white"/>
</clipPath>
</defs>
</svg>
